HIERARCHY
ROOT Hips
{
	OFFSET 0.000000 0.000000 0.000000
	CHANNELS 6 Xposition Yposition Zposition Zrotation Yrotation Xrotation 
	JOINT LeftUpLeg_virtual
	{
		OFFSET 0.000000 0.000000 0.000000
		CHANNELS 3 Zrotation Yrotation Xrotation
		JOINT LeftUpLeg
		{
			OFFSET 8.479694 -4.795517 -0.379053
			CHANNELS 3 Zrotation Yrotation Xrotation
			JOINT LeftLeg
			{
				OFFSET 0.485052 -32.551468 0.112863
				CHANNELS 3 Zrotation Yrotation Xrotation
				JOINT LeftFoot
				{
					OFFSET 0.438033 -32.635670 -3.012641
					CHANNELS 3 Zrotation Yrotation Xrotation
					JOINT LeftToeBase
					{
						OFFSET 0.970169 -13.225353 11.864223
						CHANNELS 3 Zrotation Yrotation Xrotation
						End Site
						{
							OFFSET 0.000000 0.000000 0.000000
						}
					}
				}
			}
		}
	}
	JOINT RightUpLeg_virtual
	{
		OFFSET 0.000000 0.000000 0.000000
		CHANNELS 3 Zrotation Yrotation Xrotation
		JOINT RightUpLeg
		{
			OFFSET -8.479694 -4.795517 -0.379053
			CHANNELS 3 Zrotation Yrotation Xrotation
			JOINT RightLeg
			{
				OFFSET -0.484100 -32.551483 0.112903
				CHANNELS 3 Zrotation Yrotation Xrotation
				JOINT RightFoot
				{
					OFFSET -0.438985 -32.635651 -3.012681
					CHANNELS 3 Zrotation Yrotation Xrotation
					JOINT RightToeBase
					{
						OFFSET -0.970169 -13.225354 11.864223
						CHANNELS 3 Zrotation Yrotation Xrotation
						End Site
						{
							OFFSET 0.000000 0.000000 0.000000
						}
					}
				}
			}
		}
	}
	JOINT Spine_virtual
	{
		OFFSET 0.000000 0.000000 0.000000
		CHANNELS 3 Zrotation Yrotation Xrotation
		JOINT Spine
		{
			OFFSET 0.000000 7.722015 1.166203
			CHANNELS 3 Zrotation Yrotation Xrotation
			JOINT Spine1
			{
				OFFSET 0.000000 12.024086 0.248766
				CHANNELS 3 Zrotation Yrotation Xrotation
				JOINT Spine2
				{
					OFFSET -0.000000 11.503036 -0.491240
					CHANNELS 3 Zrotation Yrotation Xrotation
					JOINT Neck_virtual
					{
						OFFSET 0.000000 0.000000 0.000000
						CHANNELS 3 Zrotation Yrotation Xrotation
						JOINT Neck
						{
							OFFSET 0.000000 18.430687 -3.123054
							CHANNELS 3 Zrotation Yrotation Xrotation
							JOINT Head
							{
								OFFSET -0.000000 9.051071 1.034021
								CHANNELS 3 Zrotation Yrotation Xrotation
								End Site
								{
									OFFSET 0.000000 0.000000 0.000000
								}
							}
						}
					}
					JOINT LeftShoulder_virtual
					{
						OFFSET 0.000000 0.000000 0.000000
						CHANNELS 3 Zrotation Yrotation Xrotation
						JOINT LeftShoulder
						{
							OFFSET 6.197824 13.665230 -4.064723
							CHANNELS 3 Zrotation Yrotation Xrotation
							JOINT LeftArm
							{
								OFFSET 7.778132 -0.187073 -1.709282
								CHANNELS 3 Zrotation Yrotation Xrotation
								JOINT LeftForeArm
								{
									OFFSET 21.954697 0.000000 -2.041093
									CHANNELS 3 Zrotation Yrotation Xrotation
									JOINT LeftHand
									{
										OFFSET 22.992908 0.000000 -0.870901
										CHANNELS 3 Zrotation Yrotation Xrotation
										End Site
										{
											OFFSET 0.000000 0.000000 0.000000
										}
									}
								}
							}
						}
					}
					JOINT RightShoulder_virtual
					{
						OFFSET 0.000000 0.000000 0.000000
						CHANNELS 3 Zrotation Yrotation Xrotation
						JOINT RightShoulder
						{
							OFFSET -6.197824 13.665230 -4.064723
							CHANNELS 3 Zrotation Yrotation Xrotation
							JOINT RightArm
							{
								OFFSET -7.778132 -0.187073 -1.709282
								CHANNELS 3 Zrotation Yrotation Xrotation
								JOINT RightForeArm
								{
									OFFSET -21.954697 0.000000 -2.041093
									CHANNELS 3 Zrotation Yrotation Xrotation
									JOINT RightHand
									{
										OFFSET -22.992908 0.000000 -0.870901
										CHANNELS 3 Zrotation Yrotation Xrotation
										End Site
										{
											OFFSET 0.000000 0.000000 0.000000
										}
									}
								}
							}
						}
					}
				}
			}
		}
	}
}
MOTION
Frames: 7
Frame Time: 0.033333
0.215999 81.720680 16.387018 179.970840 -1.044103 179.821191 -5.064563 1.903433 13.198977 6.051241 -5.940562 -19.367068 3.654622 6.076779 26.207308 1.955605 -6.166571 -12.051130 0.000000 0.000000 0.000000 -1.468247 0.689941 13.612961 -3.937716 2.428048 -15.163723 -1.907369 3.064808 23.935964 8.371731 4.936448 -8.476156 0.000000 0.000000 0.000000 1.157588 3.294980 2.443058 -3.811554 -1.161100 -5.617390 -1.543944 -3.054322 4.716385 0.009086 -0.040398 -0.045363 -2.089341 -1.624782 5.570071 1.277302 0.219535 -17.249610 0.000000 0.000000 0.000000 -0.225550 -0.694157 2.890384 14.279556 13.478326 -4.084074 3.379416 -8.535369 -45.795770 -0.639740 -36.613161 -8.325036 0.000000 0.000000 0.000000 -5.044368 0.586970 2.019732 4.197932 -15.731580 -3.921618 10.950728 -2.978416 -51.355895 -4.762146 36.075481 -6.346644 0.000000 0.000000 0.000000 
0.219470 81.727783 16.391790 179.872526 -1.082896 179.727699 -5.175846 1.981881 13.112184 5.993245 -5.876538 -19.519040 3.516076 6.400484 26.009284 1.902897 -6.259094 -12.341603 0.000000 0.000000 0.000000 -1.561768 0.708684 13.654514 -3.894022 2.388626 -15.186871 -1.967660 2.941965 23.819288 8.245723 4.731339 -8.790109 0.000000 0.000000 0.000000 1.098644 3.328043 2.564008 -3.857944 -1.131211 -5.556799 -1.561226 -3.028988 4.720514 -0.016117 -0.033281 -0.089356 -2.083358 -1.570621 5.459466 1.246894 0.176148 -17.311130 0.000000 0.000000 0.000000 -0.201024 -0.738332 2.849629 14.256435 13.437216 -4.016808 3.375389 -8.499790 -45.942721 -0.586276 -36.524676 -8.496143 0.000000 0.000000 0.000000 -5.010712 0.512709 1.957063 4.281437 -15.780063 -3.800473 10.913505 -2.950979 -51.367797 -4.905917 36.154910 -6.476882 0.000000 0.000000 0.000000 
0.228832 81.723640 16.395563 179.945732 -1.004313 179.737616 -5.113791 2.005994 13.152730 6.009569 -5.828513 -19.567288 3.468522 6.391286 26.015111 1.933659 -6.238605 -12.352437 0.000000 0.000000 0.000000 -1.498910 0.752607 13.672907 -3.895607 2.401757 -15.235632 -1.991855 2.836928 23.816277 8.270390 4.802520 -8.799824 0.000000 0.000000 0.000000 1.132777 3.328605 2.622887 -3.840494 -1.091428 -5.576928 -1.534420 -3.005989 4.730204 -0.001303 -0.007483 -0.083669 -2.094344 -1.590461 5.502571 1.292381 0.203665 -17.315402 0.000000 0.000000 0.000000 -0.188863 -0.761208 2.823169 14.277543 13.399371 -4.215540 3.325865 -8.395420 -45.816147 -0.745033 -36.498489 -8.259067 0.000000 0.000000 0.000000 -5.039515 0.600409 1.975251 4.273248 -15.756850 -3.771236 10.923387 -3.006190 -51.430771 -4.819452 36.237811 -6.467746 0.000000 0.000000 0.000000 
0.234840 81.724266 16.400217 179.932728 -1.019983 179.727617 -5.121579 1.985932 13.184611 6.019974 -5.796968 -19.595891 3.459398 6.431784 26.027278 1.900325 -6.263292 -12.355139 0.000000 0.000000 0.000000 -1.515431 0.718893 13.689790 -3.899389 2.387288 -15.235968 -1.974005 2.838383 23.811353 8.274131 4.819005 -8.795609 0.000000 0.000000 0.000000 1.117256 3.284204 2.663267 -3.868556 -1.068525 -5.565251 -1.524627 -2.998897 4.719869 0.010066 -0.008677 -0.116418 -2.085819 -1.560497 5.553366 1.364044 0.198880 -17.306263 0.000000 0.000000 0.000000 -0.204495 -0.700067 2.898413 14.312438 13.338781 -4.182545 3.371044 -8.396025 -45.853013 -0.668899 -36.493871 -8.241855 0.000000 0.000000 0.000000 -5.010024 0.582870 1.993252 4.281446 -15.790098 -3.997834 10.989680 -3.140622 -51.344619 -4.735303 36.359614 -6.397162 0.000000 0.000000 0.000000 
0.242148 81.721466 16.405581 179.922400 -1.143262 179.739146 -5.122328 1.889292 13.173302 6.039388 -5.781169 -19.618665 3.451329 6.447448 26.060361 1.841853 -6.311843 -12.342866 0.000000 0.000000 0.000000 -1.516408 0.571724 13.687297 -3.918335 2.365307 -15.205910 -1.954417 2.840401 23.751935 8.257397 4.831269 -8.827078 0.000000 0.000000 0.000000 1.105855 3.231413 2.668329 -3.907677 -1.044374 -5.557049 -1.526794 -2.974569 4.739060 -0.033738 -0.004050 -0.039499 -1.990789 -1.510123 5.430777 1.418675 0.265000 -17.324514 0.000000 0.000000 0.000000 -0.123903 -0.706852 2.867097 14.402919 13.110099 -4.154823 3.290208 -8.248890 -45.883445 -0.634983 -36.541481 -8.123789 0.000000 0.000000 0.000000 -4.940580 0.507586 1.946353 4.313768 -15.840537 -4.082279 11.024353 -3.319437 -51.500897 -4.573236 36.375197 -6.302842 0.000000 0.000000 0.000000 
0.248590 81.724579 16.410755 179.897443 -1.135222 179.735991 -5.156554 1.855706 13.157964 6.059979 -5.728920 -19.616201 3.452712 6.523234 26.086540 1.790706 -6.343639 -12.338549 0.000000 0.000000 0.000000 -1.567600 0.523219 13.651088 -3.890434 2.384952 -15.157003 -1.950469 2.870556 23.707926 8.262286 4.849808 -8.811108 0.000000 0.000000 0.000000 1.068363 3.183636 2.667780 -3.944588 -1.018223 -5.549042 -1.506261 -2.943253 4.736929 -0.031176 -0.003033 -0.041490 -1.954528 -1.484641 5.365356 1.485227 0.275436 -17.323226 0.000000 0.000000 0.000000 -0.087356 -0.662028 2.845616 14.460392 12.916429 -4.188125 3.234634 -8.084227 -45.918163 -0.596355 -36.506371 -7.978325 0.000000 0.000000 0.000000 -4.890032 0.550693 1.894062 4.414772 -15.867568 -4.011033 11.015179 -3.541086 -51.519673 -4.583113 36.494616 -6.337943 0.000000 0.000000 0.000000 
0.259003 81.731377 16.414391 179.955827 -0.983026 179.736360 -5.149250 1.876760 13.151139 6.128048 -5.654906 -19.606546 3.481700 6.643833 26.113331 1.755672 -6.354197 -12.339392 0.000000 0.000000 0.000000 -1.515432 0.570730 13.589029 -3.906034 2.444031 -15.124098 -1.972273 2.867055 23.669187 8.260174 4.886902 -8.779011 0.000000 0.000000 0.000000 1.067773 3.185448 2.697665 -3.914930 -0.977493 -5.530564 -1.436792 -2.906120 4.726379 -0.080724 -0.011049 -0.082404 -1.860262 -1.424482 5.354923 1.567540 0.234030 -17.195172 0.000000 0.000000 0.000000 -0.024797 -0.609810 2.791231 14.433491 12.737029 -4.266233 3.107269 -7.892316 -45.914550 -0.600107 -36.343713 -7.734172 0.000000 0.000000 0.000000 -4.846958 0.669303 1.887269 4.379734 -15.764015 -3.927194 11.027575 -3.957819 -51.458153 -4.666717 36.636226 -6.482515 0.000000 0.000000 0.000000 
